<?xml version="1.0" ?><svg id="Layer_1" style="enable-background:new 0 0 512 512;" version="1.1" viewBox="0 0 512 512" xml:space="preserve" xmlns="http://www.w3.org/2000/svg" xmlns:xlink="http://www.w3.org/1999/xlink"><g><g><path d="M82,113.7H31.3C17.3,113.7,6,125,6,139l0,0c0,14,11.3,25.3,25.3,25.3H82c14,0,25.3-11.3,25.3-25.3l0,0    C107.3,125,96,113.7,82,113.7z" id="XMLID_10_"/><path d="M82,230.7H31.3C17.3,230.7,6,242,6,256l0,0c0,14,11.3,25.3,25.3,25.3H82c14,0,25.3-11.3,25.3-25.3l0,0    C107.3,242,96,230.7,82,230.7z" id="XMLID_9_"/><path d="M82,347.7H31.3C17.3,347.7,6,359,6,373l0,0c0,14,11.3,25.3,25.3,25.3H82c14,0,25.3-11.3,25.3-25.3l0,0    C107.3,359,96,347.7,82,347.7z" id="XMLID_8_"/></g><path d="M358.8,11.6H147.1c-45.6,0-83.3,36.5-89.5,84H82c23.9,0,43.4,19.5,43.4,43.4s-19.5,43.4-43.4,43.4H56.7v30.2H82   c23.9,0,43.4,19.5,43.4,43.4c0,23.9-19.5,43.4-43.4,43.4H56.7v30.2H82c23.9,0,43.4,19.5,43.4,43.4s-19.5,43.4-43.4,43.4H57.6   c6.2,47.5,43.9,84,89.5,84h211.7c50,0,90.5-43.8,90.5-97.8V109.4C449.3,55.4,408.8,11.6,358.8,11.6z M253,176.4   c21.9,0,39.7,17.8,39.7,39.7s-17.8,39.7-39.7,39.7s-39.7-17.8-39.7-39.7S231,176.4,253,176.4z M166.4,335.6   c0-40.7,33-73.8,73.8-73.8h25.7c40.7,0,73.8,33,73.8,73.8H166.4z"/><path d="M497.6,188.3l-30.2,12.6v-97.4l30.2,12.6c5.1,2.1,8.4,6.8,8.4,11.9v48.4C506,181.5,502.7,186.2,497.6,188.3z   " id="XMLID_4_"/><path d="M505.1,203.7l-37.7,17.1v52.5l30.2-13.7c5.1-2.3,8.4-7.4,8.4-13v-43.4C505.7,203.3,505.4,203.5,505.1,203.7z   " id="XMLID_3_"/><path d="M505.1,276l-37.7,17.1v52.5l30.2-13.7c5.1-2.3,8.4-7.4,8.4-13v-43.4C505.7,275.7,505.4,275.9,505.1,276z" id="XMLID_2_"/><path d="M505.1,348.4l-37.7,17.1V418l30.2-13.7c5.1-2.3,8.4-7.4,8.4-13v-43.4C505.7,348.1,505.4,348.3,505.1,348.4z" id="XMLID_1_"/></g></svg>